<svg width="1440" height="1053" viewBox="0 0 1440 1053" fill="none" xmlns="http://www.w3.org/2000/svg">
<mask id="path-1-outside-1_589_226" maskUnits="userSpaceOnUse" x="-138.07" y="-0.597453" width="1593.27" height="530.671" fill="black">
<rect fill="white" x="-138.07" y="-0.597453" width="1593.27" height="530.671"/>
<path d="M-123.62 456.865C-89.9687 455.81 -28.6071 485.562 37.9047 451.804C104.417 418.045 121.307 306.566 195.637 294.822C269.967 283.079 319.515 401.908 394.691 395.436C469.866 388.963 483.765 285.559 556.481 263.754C629.198 241.948 670.705 310.658 743.729 290.769C816.753 270.88 833.741 186.738 906.995 168.287C980.25 149.835 1021.02 213.945 1095.35 202.201C1169.68 190.458 1189.14 121.745 1263.78 111.919C1338.42 102.092 1414.06 146.051 1453.61 155.033"/>
</mask>
<path d="M-123.658 457.879C-115.363 457.619 -105.316 459.259 -93.7753 461.375C-82.2686 463.486 -69.3241 466.059 -55.3522 467.607C-27.3919 470.704 4.79102 469.71 38.2903 452.707L37.5191 450.9C4.50661 467.656 -27.2472 468.665 -55.0083 465.59C-68.8972 464.051 -81.7596 461.494 -93.301 459.378C-104.808 457.267 -115.051 455.584 -123.581 455.851L-123.658 457.879ZM38.2903 452.707C55.1127 444.169 68.7567 430.737 80.9063 415.289C93.0452 399.855 103.757 382.32 114.646 365.58C136.501 331.981 159.068 301.615 195.72 295.825L195.554 293.82C157.876 299.773 134.832 331.018 113.032 364.534C102.093 381.351 91.4657 398.75 79.4084 414.08C67.3619 429.397 53.9526 442.559 37.5191 450.9L38.2903 452.707ZM195.72 295.825C214.014 292.934 230.833 298.065 247 307.392C263.181 316.727 278.626 330.215 294.176 343.941C309.697 357.642 325.322 371.579 341.78 381.675C358.248 391.777 375.637 398.088 394.705 396.446L394.676 394.425C376.156 396.019 359.161 389.904 342.873 379.913C326.575 369.915 311.072 356.093 295.518 342.363C279.993 328.659 264.415 315.046 248.052 305.606C231.674 296.157 214.425 290.838 195.554 293.82L195.72 295.825ZM394.705 396.446C432.804 393.166 455.338 365.279 477.274 335.927C499.303 306.451 520.739 275.508 556.696 264.726L556.267 262.781C519.507 273.805 497.636 305.467 475.743 334.762C453.756 364.182 431.753 391.233 394.676 394.425L394.705 396.446ZM556.696 264.726C592.683 253.934 620.949 265.511 649.565 277.486C678.127 289.438 707.044 301.791 743.918 291.748L743.539 289.789C707.39 299.635 679.041 287.578 650.414 275.599C621.842 263.643 592.996 251.767 556.267 262.781L556.696 264.726ZM743.918 291.748C780.78 281.708 803.484 255.433 825.988 229.637C848.542 203.783 870.898 178.406 907.166 169.271L906.824 167.302C869.838 176.618 847.073 202.538 824.563 228.34C802.004 254.2 779.701 279.94 743.539 289.789L743.918 291.748ZM907.166 169.271C943.448 160.132 971.692 171.413 1000.34 183.669C1028.94 195.905 1057.96 209.125 1095.43 203.204L1095.27 201.199C1058.41 207.021 1029.88 194.058 1001.2 181.788C972.565 169.537 943.796 157.99 906.824 167.302L907.166 169.271ZM1095.43 203.204C1132.91 197.282 1156.57 176.972 1180.04 157.106C1203.53 137.233 1226.84 117.795 1263.84 112.924L1263.72 110.913C1226.08 115.869 1202.34 135.701 1178.86 155.576C1155.36 175.459 1132.12 195.377 1095.27 201.199L1095.43 203.204ZM1263.84 112.924C1300.94 108.039 1338.35 116.52 1371.5 127.391C1388.07 132.825 1403.54 138.845 1417.37 144.08C1431.17 149.306 1443.38 153.762 1453.34 156.024L1453.89 154.042C1444.07 151.813 1431.99 147.405 1418.16 142.17C1404.35 136.943 1388.83 130.904 1372.21 125.454C1338.99 114.557 1301.26 105.971 1263.72 110.913L1263.84 112.924Z" fill="url(#paint0_linear_589_226)" fill-opacity="0.15" mask="url(#path-1-outside-1_589_226)"/>
<mask id="path-3-outside-2_589_226" maskUnits="userSpaceOnUse" x="-128.772" y="523.792" width="1593.27" height="530.671" fill="black">
<rect fill="white" x="-128.772" y="523.792" width="1593.27" height="530.671"/>
<path d="M-114.322 981.254C-80.6713 980.2 -19.3097 1009.95 47.2021 976.193C113.714 942.434 130.604 830.955 204.934 819.212C279.265 807.469 328.812 926.298 403.988 919.825C479.164 913.353 493.062 809.949 565.779 788.143C638.495 766.338 680.002 835.047 753.026 815.158C826.05 795.269 843.038 711.128 916.293 692.676C989.547 674.225 1030.32 738.334 1104.65 726.591C1178.98 714.848 1198.44 646.135 1273.08 636.308C1347.72 626.481 1423.36 670.44 1462.91 679.423"/>
</mask>
<path d="M-114.36 982.268C-106.066 982.008 -96.019 983.648 -84.478 985.765C-72.9713 987.875 -60.0267 990.449 -46.0549 991.997C-18.0945 995.094 14.0884 994.1 47.5877 977.097L46.8165 975.29C13.804 992.045 -17.9498 993.055 -45.7109 989.979C-59.5998 988.441 -72.4622 985.884 -84.0036 983.767C-95.5107 981.657 -105.753 979.973 -114.284 980.241L-114.36 982.268ZM47.5877 977.097C64.4101 968.559 78.054 955.126 90.2037 939.679C102.343 924.245 113.055 906.71 123.944 889.97C145.798 856.371 168.365 826.005 205.017 820.214L204.851 818.21C167.173 824.162 144.13 855.408 122.329 888.924C111.39 905.741 100.763 923.14 88.7057 938.47C76.6592 953.786 63.25 966.949 46.8165 975.29L47.5877 977.097ZM205.017 820.214C223.311 817.324 240.13 822.455 256.297 831.782C272.478 841.117 287.923 854.605 303.473 868.331C318.994 882.031 334.619 895.969 351.077 906.064C367.546 916.167 384.934 922.478 404.002 920.836L403.974 918.815C385.454 920.409 368.458 914.294 352.171 904.303C335.872 894.305 320.369 880.483 304.815 866.753C289.29 853.049 273.712 839.436 257.349 829.996C240.971 820.547 223.723 815.228 204.851 818.21L205.017 820.214ZM404.002 920.836C442.102 917.556 464.636 889.668 486.571 860.317C508.6 830.841 530.037 799.898 565.993 789.116L565.564 787.171C528.804 798.194 506.934 829.856 485.04 859.152C463.053 888.571 441.05 915.622 403.974 918.815L404.002 920.836ZM565.993 789.116C601.981 778.324 630.246 789.9 658.863 801.876C687.424 813.827 716.342 826.181 753.216 816.138L752.837 814.179C716.687 824.025 688.339 811.968 659.711 799.989C631.14 788.033 602.293 776.157 565.564 787.171L565.993 789.116ZM753.216 816.138C790.078 806.098 812.781 779.823 835.286 754.026C857.84 728.173 880.196 702.796 916.464 693.66L916.122 691.692C879.135 701.008 856.37 726.927 833.86 752.73C811.301 778.589 788.999 804.33 752.837 814.179L753.216 816.138ZM916.464 693.66C952.746 684.522 980.989 695.803 1009.64 708.059C1038.24 720.295 1067.25 733.514 1104.73 727.593L1104.56 725.589C1067.71 731.411 1039.18 718.447 1010.5 706.177C981.863 693.927 953.094 682.379 916.122 691.692L916.464 693.66ZM1104.73 727.593C1142.21 721.672 1165.86 701.362 1189.34 681.496C1212.83 661.622 1236.14 642.185 1273.14 637.314L1273.02 635.302C1235.38 640.258 1211.64 660.09 1188.15 679.966C1164.66 699.849 1141.41 719.767 1104.56 725.589L1104.73 727.593ZM1273.14 637.314C1310.24 632.429 1347.65 640.91 1380.8 651.781C1397.36 657.215 1412.83 663.235 1426.66 668.47C1440.47 673.696 1452.67 678.152 1462.63 680.414L1463.18 678.432C1453.37 676.202 1441.29 671.795 1427.45 666.56C1413.65 661.333 1398.13 655.294 1381.51 649.844C1348.28 638.946 1310.55 630.361 1273.02 635.302L1273.14 637.314Z" fill="url(#paint1_linear_589_226)" fill-opacity="0.15" mask="url(#path-3-outside-2_589_226)"/>
<mask id="path-5-outside-3_589_226" maskUnits="userSpaceOnUse" x="-130.322" y="436.394" width="1593.27" height="530.671" fill="black">
<rect fill="white" x="-130.322" y="436.394" width="1593.27" height="530.671"/>
<path d="M-115.872 893.856C-82.2209 892.802 -20.8593 922.554 45.6525 888.795C112.164 855.036 129.054 743.557 203.385 731.814C277.715 720.071 327.263 838.9 402.438 832.427C477.614 825.955 491.513 722.551 564.229 700.745C636.945 678.94 678.453 747.649 751.477 727.76C824.5 707.871 841.489 623.73 914.743 605.278C987.997 586.827 1028.77 650.936 1103.1 639.193C1177.43 627.45 1196.89 558.737 1271.53 548.91C1346.17 539.083 1421.81 583.042 1461.36 592.025"/>
</mask>
<path d="M-115.91 894.87C-107.615 894.61 -97.5686 896.25 -86.0275 898.367C-74.5208 900.477 -61.5763 903.051 -47.6044 904.599C-19.6441 907.696 12.5388 906.702 46.0381 889.699L45.2669 887.892C12.2544 904.647 -19.4994 905.657 -47.2605 902.581C-61.1494 901.043 -74.0118 898.486 -85.5532 896.369C-97.0603 894.259 -107.303 892.575 -115.834 892.843L-115.91 894.87ZM46.0381 889.699C62.8605 881.161 76.5045 867.728 88.6541 852.281C100.793 836.847 111.505 819.312 122.394 802.572C144.249 768.973 166.815 738.607 203.468 732.816L203.302 730.812C165.624 736.764 142.58 768.01 120.779 801.526C109.84 818.343 99.2135 835.742 87.1562 851.072C75.1097 866.388 61.7004 879.55 45.2669 887.892L46.0381 889.699ZM203.468 732.816C221.762 729.926 238.58 735.057 254.747 744.384C270.929 753.719 286.374 767.207 301.924 780.933C317.444 794.633 333.07 808.571 349.527 818.666C365.996 828.769 383.385 835.08 402.453 833.438L402.424 831.417C383.904 833.011 366.908 826.896 350.621 816.905C334.322 806.907 318.82 793.085 303.265 779.355C287.74 765.651 272.163 752.038 255.8 742.598C239.422 733.149 222.173 727.83 203.302 730.812L203.468 732.816ZM402.453 833.438C440.552 830.158 463.086 802.27 485.022 772.919C507.05 743.443 528.487 712.5 564.443 701.718L564.015 699.773C527.255 710.796 505.384 742.458 483.49 771.754C461.504 801.173 439.5 828.224 402.424 831.417L402.453 833.438ZM564.443 701.718C600.431 690.926 628.696 702.502 657.313 714.477C685.875 726.429 714.792 738.783 751.666 728.74L751.287 726.781C715.137 736.627 686.789 724.57 658.162 712.591C629.59 700.635 600.743 688.759 564.015 699.773L564.443 701.718ZM751.666 728.74C788.528 718.7 811.232 692.425 833.736 666.628C856.29 640.775 878.646 615.398 914.914 606.262L914.572 604.294C877.586 613.61 854.82 639.529 832.311 665.332C809.752 691.191 787.449 716.932 751.287 726.781L751.666 728.74ZM914.914 606.262C951.196 597.124 979.439 608.405 1008.09 620.661C1036.69 632.897 1065.7 646.116 1103.18 640.195L1103.01 638.191C1066.16 644.013 1037.63 631.049 1008.95 618.779C980.313 606.529 951.544 594.981 914.572 604.294L914.914 606.262ZM1103.18 640.195C1140.66 634.274 1164.32 613.964 1187.79 594.098C1211.28 574.224 1234.59 554.787 1271.59 549.916L1271.47 547.904C1233.83 552.86 1210.09 572.692 1186.6 592.568C1163.11 612.451 1139.86 632.369 1103.01 638.191L1103.18 640.195ZM1271.59 549.916C1308.69 545.031 1346.1 553.512 1379.25 564.383C1395.81 569.817 1411.28 575.837 1425.11 581.072C1438.92 586.298 1451.12 590.754 1461.08 593.016L1461.63 591.034C1451.82 588.804 1439.74 584.397 1425.91 579.162C1412.1 573.935 1396.58 567.896 1379.96 562.446C1346.74 551.548 1309 542.963 1271.47 547.904L1271.59 549.916Z" fill="url(#paint2_linear_589_226)" fill-opacity="0.15" mask="url(#path-5-outside-3_589_226)"/>
<mask id="path-7-outside-4_589_226" maskUnits="userSpaceOnUse" x="-131.871" y="348.996" width="1593.27" height="530.671" fill="black">
<rect fill="white" x="-131.871" y="348.996" width="1593.27" height="530.671"/>
<path d="M-117.421 806.458C-83.7704 805.404 -22.4088 835.156 44.103 801.397C110.615 767.638 127.505 656.159 201.835 644.416C276.166 632.672 325.713 751.502 400.889 745.029C476.065 738.556 489.963 635.153 562.68 613.347C635.396 591.541 676.903 660.251 749.927 640.362C822.951 620.473 839.939 536.331 913.193 517.88C986.448 499.428 1027.22 563.538 1101.55 551.795C1175.88 540.051 1195.34 471.339 1269.98 461.512C1344.62 451.685 1420.26 495.644 1459.81 504.626"/>
</mask>
<path d="M-117.46 807.472C-109.165 807.212 -99.1181 808.852 -87.5771 810.969C-76.0704 813.079 -63.1258 815.652 -49.154 817.2C-21.1937 820.298 10.9893 819.304 44.4885 802.301L43.7174 800.493C10.7049 817.249 -21.0489 818.259 -48.8101 815.183C-62.699 813.645 -75.5613 811.088 -87.1027 808.971C-98.6098 806.86 -108.853 805.177 -117.383 805.444L-117.46 807.472ZM44.4885 802.301C61.311 793.762 74.9549 780.33 87.1046 764.882C99.2434 749.448 109.956 731.914 120.844 715.173C142.699 681.574 165.266 651.208 201.918 645.418L201.752 643.413C164.074 649.366 141.031 680.611 119.23 714.128C108.291 730.945 97.6639 748.343 85.6066 763.674C73.5601 778.99 60.1509 792.152 43.7174 800.493L44.4885 802.301ZM201.918 645.418C220.212 642.528 237.031 647.659 253.198 656.985C269.379 666.321 284.824 679.808 300.374 693.535C315.895 707.235 331.52 721.173 347.978 731.268C364.447 741.37 381.835 747.681 400.903 746.04L400.875 744.018C382.355 745.613 365.359 739.497 349.071 729.507C332.773 719.509 317.27 705.687 301.716 691.957C286.191 678.253 270.613 664.64 254.25 655.199C237.872 645.751 220.624 640.432 201.752 643.413L201.918 645.418ZM400.903 746.04C439.003 742.759 461.537 714.872 483.472 685.52C505.501 656.044 526.938 625.102 562.894 614.319L562.465 612.375C525.705 623.398 503.834 655.06 481.941 684.355C459.954 713.775 437.951 740.826 400.875 744.018L400.903 746.04ZM562.894 614.319C598.881 603.528 627.147 615.104 655.764 627.079C684.325 639.031 713.243 651.384 750.117 641.341L749.738 639.382C713.588 649.228 685.239 637.172 656.612 625.192C628.04 613.236 599.194 601.361 562.465 612.375L562.894 614.319ZM750.117 641.341C786.978 631.301 809.682 605.027 832.187 579.23C854.74 553.377 877.097 527.999 913.364 518.864L913.023 516.896C876.036 526.212 853.271 552.131 830.761 577.934C808.202 603.793 785.899 629.533 749.738 639.382L750.117 641.341ZM913.364 518.864C949.646 509.725 977.89 521.007 1006.54 533.262C1035.14 545.498 1064.15 558.718 1101.63 552.797L1101.46 550.792C1064.61 556.615 1036.08 543.651 1007.4 531.381C978.763 519.13 949.995 507.583 913.023 516.896L913.364 518.864ZM1101.63 552.797C1139.11 546.875 1162.77 526.566 1186.24 506.7C1209.73 486.826 1233.04 467.388 1270.04 462.518L1269.92 460.506C1232.28 465.462 1208.54 485.294 1185.05 505.169C1161.56 525.052 1138.32 544.97 1101.46 550.792L1101.63 552.797ZM1270.04 462.518C1307.14 457.633 1344.55 466.113 1377.7 476.984C1394.26 482.418 1409.74 488.439 1423.56 493.673C1437.37 498.9 1449.58 503.356 1459.53 505.618L1460.08 503.635C1450.27 501.406 1438.19 496.999 1424.36 491.764C1410.55 486.537 1395.03 480.497 1378.41 475.047C1345.19 464.15 1307.45 455.564 1269.92 460.506L1270.04 462.518Z" fill="url(#paint3_linear_589_226)" fill-opacity="0.15" mask="url(#path-7-outside-4_589_226)"/>
<mask id="path-9-outside-5_589_226" maskUnits="userSpaceOnUse" x="-133.421" y="261.598" width="1593.27" height="530.671" fill="black">
<rect fill="white" x="-133.421" y="261.598" width="1593.27" height="530.671"/>
<path d="M-118.971 719.06C-85.32 718.005 -23.9584 747.758 42.5534 713.999C109.065 680.24 125.955 568.761 200.286 557.017C274.616 545.274 324.163 664.103 399.339 657.631C474.515 651.158 488.414 547.754 561.13 525.949C633.846 504.143 675.354 572.853 748.378 552.964C821.401 533.075 838.39 448.933 911.644 430.482C984.898 412.03 1025.67 476.14 1100 464.396C1174.33 452.653 1193.79 383.94 1268.43 374.114C1343.07 364.287 1418.71 408.246 1458.26 417.228"/>
</mask>
<path d="M-119.009 720.074C-110.714 719.814 -100.668 721.454 -89.1267 723.57C-77.6199 725.681 -64.6754 728.254 -50.7036 729.802C-22.7432 732.899 9.4397 731.905 42.939 714.902L42.1678 713.095C9.15529 729.851 -22.5985 730.86 -50.3596 727.785C-64.2485 726.246 -77.1109 723.689 -88.6523 721.573C-100.159 719.462 -110.402 717.779 -118.933 718.046L-119.009 720.074ZM42.939 714.902C59.7614 706.364 73.4053 692.932 85.555 677.484C97.6939 662.05 108.406 644.515 119.295 627.775C141.15 594.176 163.716 563.81 200.369 558.02L200.203 556.015C162.525 561.968 139.481 593.213 117.68 626.729C106.741 643.546 96.1143 660.945 84.057 676.275C72.0106 691.592 58.6013 704.754 42.1678 713.095L42.939 714.902ZM200.369 558.02C218.663 555.129 235.481 560.26 251.648 569.587C267.83 578.922 283.275 592.41 298.825 606.136C314.345 619.837 329.971 633.774 346.428 643.87C362.897 653.972 380.286 660.283 399.354 658.641L399.325 656.62C380.805 658.215 363.809 652.099 347.522 642.108C331.223 632.111 315.721 618.289 300.166 604.558C284.641 590.854 269.064 577.241 252.7 567.801C236.323 558.353 219.074 553.034 200.203 556.015L200.369 558.02ZM399.354 658.641C437.453 655.361 459.987 627.474 481.923 598.122C503.951 568.646 525.388 537.703 561.344 526.921L560.916 524.976C524.156 536 502.285 567.662 480.391 596.957C458.405 626.377 436.401 653.428 399.325 656.62L399.354 658.641ZM561.344 526.921C597.332 516.129 625.597 527.706 654.214 539.681C682.776 551.633 711.693 563.986 748.567 553.943L748.188 551.984C712.038 561.83 683.69 549.773 655.063 537.794C626.491 525.838 597.644 513.963 560.916 524.976L561.344 526.921ZM748.567 553.943C785.429 543.903 808.132 517.628 830.637 491.832C853.191 465.978 875.547 440.601 911.815 431.466L911.473 429.497C874.486 438.814 851.721 464.733 829.211 490.536C806.652 516.395 784.35 542.135 748.188 551.984L748.567 553.943ZM911.815 431.466C948.097 422.327 976.34 433.608 1004.99 445.864C1033.59 458.1 1062.6 471.32 1100.08 465.399L1099.92 463.394C1063.06 469.216 1034.53 456.253 1005.85 443.983C977.214 431.732 948.445 420.185 911.473 429.497L911.815 431.466ZM1100.08 465.399C1137.56 459.477 1161.22 439.167 1184.69 419.301C1208.18 399.428 1231.49 379.99 1268.49 375.12L1268.37 373.108C1230.73 378.064 1206.99 397.896 1183.5 417.771C1160.01 437.654 1136.77 457.572 1099.92 463.394L1100.08 465.399ZM1268.49 375.12C1305.59 370.234 1343 378.715 1376.15 389.586C1392.71 395.02 1408.19 401.041 1422.02 406.275C1435.82 411.501 1448.03 415.957 1457.98 418.219L1458.53 416.237C1448.72 414.008 1436.64 409.6 1422.81 404.365C1409 399.138 1393.48 393.099 1376.86 387.649C1343.64 376.752 1305.91 368.166 1268.37 373.108L1268.49 375.12Z" fill="url(#paint4_linear_589_226)" fill-opacity="0.15" mask="url(#path-9-outside-5_589_226)"/>
<mask id="path-11-outside-6_589_226" maskUnits="userSpaceOnUse" x="-134.97" y="174.2" width="1593.27" height="530.671" fill="black">
<rect fill="white" x="-134.97" y="174.2" width="1593.27" height="530.671"/>
<path d="M-120.52 631.662C-86.8696 630.607 -25.508 660.36 41.0038 626.601C107.516 592.842 124.406 481.363 198.736 469.619C273.067 457.876 322.614 576.705 397.79 570.233C472.966 563.76 486.864 460.356 559.58 438.551C632.297 416.745 673.804 485.455 746.828 465.566C819.852 445.677 836.84 361.535 910.094 343.084C983.349 324.632 1024.12 388.742 1098.45 376.998C1172.78 365.255 1192.24 296.542 1266.88 286.716C1341.52 276.889 1417.16 320.848 1456.71 329.83"/>
</mask>
<path d="M-120.559 632.676C-112.264 632.416 -102.217 634.056 -90.6762 636.173C-79.1695 638.283 -66.225 640.856 -52.2531 642.404C-24.2928 645.501 7.89014 644.507 41.3894 627.504L40.6183 625.697C7.60573 642.453 -24.148 643.462 -51.9092 640.387C-65.7981 638.848 -78.6605 636.291 -90.2018 634.175C-101.709 632.064 -111.952 630.381 -120.482 630.648L-120.559 632.676ZM41.3894 627.504C58.2118 618.966 71.8558 605.534 84.0055 590.086C96.1443 574.652 106.856 557.117 117.745 540.377C139.6 506.778 162.167 476.412 198.819 470.622L198.653 468.617C160.975 474.57 137.932 505.815 116.131 539.331C105.192 556.148 94.5648 573.547 82.5075 588.877C70.461 604.194 57.0517 617.356 40.6183 625.697L41.3894 627.504ZM198.819 470.622C217.113 467.731 233.932 472.862 250.099 482.189C266.28 491.524 281.725 505.012 297.275 518.738C312.796 532.439 328.421 546.377 344.879 556.472C361.348 566.574 378.736 572.885 397.804 571.243L397.775 569.222C379.255 570.817 362.26 564.701 345.972 554.71C329.674 544.713 314.171 530.891 298.617 517.161C283.092 503.456 267.514 489.843 251.151 480.403C234.773 470.955 217.524 465.636 198.653 468.617L198.819 470.622ZM397.804 571.243C435.904 567.963 458.437 540.076 480.373 510.724C502.402 481.248 523.839 450.305 559.795 439.523L559.366 437.578C522.606 448.602 500.735 480.264 478.842 509.559C456.855 538.979 434.852 566.03 397.775 569.222L397.804 571.243ZM559.795 439.523C595.782 428.731 624.048 440.308 652.665 452.283C681.226 464.235 710.143 476.588 747.018 466.545L746.638 464.586C710.489 474.432 682.14 462.375 653.513 450.396C624.941 438.44 596.095 426.565 559.366 437.578L559.795 439.523ZM747.018 466.545C783.879 456.505 806.583 430.23 829.088 404.434C851.641 378.58 873.997 353.203 910.265 344.068L909.923 342.099C872.937 351.416 850.172 377.335 827.662 403.138C805.103 428.997 782.8 454.737 746.638 464.586L747.018 466.545ZM910.265 344.068C946.547 334.929 974.791 346.211 1003.44 358.466C1032.04 370.702 1061.05 383.922 1098.53 378.001L1098.37 375.996C1061.51 381.818 1032.98 368.855 1004.3 356.585C975.664 344.334 946.896 332.787 909.923 342.099L910.265 344.068ZM1098.53 378.001C1136.01 372.079 1159.67 351.769 1183.14 331.904C1206.63 312.03 1229.94 292.592 1266.94 287.722L1266.82 285.71C1229.18 290.666 1205.44 310.498 1181.96 330.373C1158.46 350.256 1135.22 370.174 1098.37 375.996L1098.53 378.001ZM1266.94 287.722C1304.04 282.836 1341.45 291.317 1374.6 302.188C1391.16 307.622 1406.64 313.643 1420.47 318.877C1434.27 324.104 1446.48 328.559 1456.44 330.821L1456.99 328.839C1447.17 326.61 1435.09 322.203 1421.26 316.967C1407.45 311.741 1391.93 305.701 1375.31 300.251C1342.09 289.354 1304.36 280.768 1266.82 285.71L1266.94 287.722Z" fill="url(#paint5_linear_589_226)" fill-opacity="0.15" mask="url(#path-11-outside-6_589_226)"/>
<mask id="path-13-outside-7_589_226" maskUnits="userSpaceOnUse" x="-136.52" y="86.8011" width="1593.27" height="530.671" fill="black">
<rect fill="white" x="-136.52" y="86.8011" width="1593.27" height="530.671"/>
<path d="M-122.07 544.263C-88.4191 543.209 -27.0575 572.961 39.4543 539.202C105.966 505.443 122.856 393.964 197.187 382.221C271.517 370.477 321.064 489.307 396.24 482.834C471.416 476.362 485.315 372.958 558.031 351.152C630.747 329.347 672.255 398.056 745.278 378.167C818.302 358.278 835.29 274.137 908.545 255.685C981.799 237.234 1022.57 301.343 1096.9 289.6C1171.23 277.856 1190.69 209.144 1265.33 199.317C1339.97 189.49 1415.61 233.449 1455.16 242.432"/>
</mask>
<path d="M-122.108 545.277C-113.813 545.017 -103.767 546.657 -92.2258 548.774C-80.7191 550.884 -67.7745 553.458 -53.8027 555.005C-25.8423 558.103 6.34058 557.109 39.8399 540.106L39.0687 538.298C6.05617 555.054 -25.6976 556.064 -53.4587 552.988C-67.3476 551.45 -80.21 548.893 -91.7514 546.776C-103.259 544.666 -113.501 542.982 -122.032 543.25L-122.108 545.277ZM39.8399 540.106C56.6623 531.567 70.3062 518.135 82.4559 502.688C94.5947 487.254 105.307 469.719 116.196 452.979C138.051 419.379 160.617 389.014 197.27 383.223L197.104 381.218C159.426 387.171 136.382 418.417 114.581 451.933C103.642 468.75 93.0152 486.149 80.9579 501.479C68.9114 516.795 55.5022 529.957 39.0687 538.298L39.8399 540.106ZM197.27 383.223C215.563 380.333 232.382 385.464 248.549 394.791C264.731 404.126 280.175 417.614 295.725 431.34C311.246 445.04 326.872 458.978 343.329 469.073C359.798 479.175 377.187 485.487 396.255 483.845L396.226 481.823C377.706 483.418 360.71 477.303 344.423 467.312C328.124 457.314 312.622 443.492 297.067 429.762C281.542 416.058 265.965 402.445 249.601 393.005C233.223 383.556 215.975 378.237 197.104 381.218L197.27 383.223ZM396.255 483.845C434.354 480.564 456.888 452.677 478.824 423.326C500.852 393.85 522.289 362.907 558.245 352.125L557.816 350.18C521.056 361.203 499.186 392.865 477.292 422.161C455.306 451.58 433.302 478.631 396.226 481.823L396.255 483.845ZM558.245 352.125C594.233 341.333 622.498 352.909 651.115 364.884C679.677 376.836 708.594 389.19 745.468 379.147L745.089 377.188C708.939 387.034 680.591 374.977 651.964 362.998C623.392 351.041 594.545 339.166 557.816 350.18L558.245 352.125ZM745.468 379.147C782.33 369.107 805.033 342.832 827.538 317.035C850.092 291.182 872.448 265.805 908.716 256.669L908.374 254.701C871.387 264.017 848.622 289.936 826.112 315.739C803.553 341.598 781.251 367.339 745.089 377.188L745.468 379.147ZM908.716 256.669C944.998 247.531 973.241 258.812 1001.89 271.068C1030.49 283.304 1059.5 296.523 1096.98 290.602L1096.82 288.598C1059.96 294.42 1031.43 281.456 1002.75 269.186C974.115 256.936 945.346 245.388 908.374 254.701L908.716 256.669ZM1096.98 290.602C1134.46 284.681 1158.12 264.371 1181.59 244.505C1205.08 224.631 1228.39 205.194 1265.39 200.323L1265.27 198.311C1227.63 203.267 1203.89 223.099 1180.41 242.974C1156.91 262.857 1133.67 282.776 1096.82 288.598L1096.98 290.602ZM1265.39 200.323C1302.49 195.438 1339.9 203.919 1373.05 214.789C1389.62 220.224 1405.09 226.244 1418.92 231.479C1432.72 236.705 1444.93 241.161 1454.89 243.423L1455.44 241.44C1445.62 239.211 1433.54 234.804 1419.71 229.569C1405.9 224.342 1390.38 218.303 1373.76 212.853C1340.54 201.955 1302.81 193.37 1265.27 198.311L1265.39 200.323Z" fill="url(#paint6_linear_589_226)" fill-opacity="0.15" mask="url(#path-13-outside-7_589_226)"/>
<defs>
<linearGradient id="paint0_linear_589_226" x1="645.958" y1="187.271" x2="682.089" y2="338.888" gradientUnits="userSpaceOnUse">
<stop stop-color="#F93926"/>
<stop offset="0.46875" stop-color="#67ECE4"/>
</linearGradient>
<linearGradient id="paint1_linear_589_226" x1="655.256" y1="711.66" x2="691.386" y2="863.277" gradientUnits="userSpaceOnUse">
<stop stop-color="#F93926"/>
<stop offset="0.46875" stop-color="#67ECE4"/>
</linearGradient>
<linearGradient id="paint2_linear_589_226" x1="653.706" y1="624.262" x2="689.837" y2="775.879" gradientUnits="userSpaceOnUse">
<stop stop-color="#F93926"/>
<stop offset="0.46875" stop-color="#67ECE4"/>
</linearGradient>
<linearGradient id="paint3_linear_589_226" x1="652.157" y1="536.864" x2="688.287" y2="688.481" gradientUnits="userSpaceOnUse">
<stop stop-color="#F93926"/>
<stop offset="0.46875" stop-color="#67ECE4"/>
</linearGradient>
<linearGradient id="paint4_linear_589_226" x1="650.607" y1="449.466" x2="686.738" y2="601.083" gradientUnits="userSpaceOnUse">
<stop stop-color="#F93926"/>
<stop offset="0.46875" stop-color="#67ECE4"/>
</linearGradient>
<linearGradient id="paint5_linear_589_226" x1="649.058" y1="362.068" x2="685.188" y2="513.685" gradientUnits="userSpaceOnUse">
<stop stop-color="#F93926"/>
<stop offset="0.46875" stop-color="#67ECE4"/>
</linearGradient>
<linearGradient id="paint6_linear_589_226" x1="647.508" y1="274.669" x2="683.638" y2="426.286" gradientUnits="userSpaceOnUse">
<stop stop-color="#F93926"/>
<stop offset="0.46875" stop-color="#67ECE4"/>
</linearGradient>
</defs>
</svg>
