<svg width="413" height="343" viewBox="0 0 413 343" fill="none" xmlns="http://www.w3.org/2000/svg">
<g filter="url(#filter0_bd_67_286)">
<g clip-path="url(#clip0_67_286)">
<path d="M10 30C10 18.9543 18.9543 10 30 10H353C380.614 10 403 32.3858 403 60V323C403 328.523 398.523 333 393 333H60C32.3858 333 10 310.614 10 283V30Z" fill="#18171E"/>
<g filter="url(#filter1_f_67_286)">
<circle cx="205.5" cy="193.5" r="215.5" fill="url(#paint0_linear_67_286)" fill-opacity="0.1"/>
</g>
</g>
<path d="M59.4942 332.997C59.1574 332.994 58.8213 332.987 58.4861 332.978L58.4267 334.977C58.0783 334.966 57.7307 334.952 57.384 334.935L57.4831 332.938C57.1462 332.921 56.8102 332.901 56.4751 332.878L56.3361 334.873C55.9875 334.849 55.6399 334.821 55.2932 334.79L55.472 332.798C55.1372 332.768 54.8034 332.734 54.4706 332.698L54.2519 334.686C53.9038 334.647 53.5568 334.606 53.2108 334.561L53.4695 332.577C53.1369 332.534 52.8052 332.487 52.4747 332.437L52.1762 334.415C51.8297 334.363 51.4843 334.307 51.1401 334.248L51.4786 332.277C51.1474 332.22 50.8173 332.16 50.4884 332.096L50.1102 334.06C49.7669 333.994 49.4249 333.925 49.0841 333.852L49.502 331.896C49.1729 331.826 48.8451 331.752 48.5185 331.675L48.061 333.622C47.7213 333.543 47.3828 333.459 47.0456 333.373L47.5424 331.436C47.2163 331.352 46.8915 331.265 46.568 331.175L46.0319 333.102C45.6952 333.008 45.3599 332.911 45.0261 332.811L45.6011 330.896C45.2793 330.799 44.9588 330.699 44.6397 330.596L44.0259 332.5C43.693 332.392 43.3616 332.282 43.0317 332.168L43.684 330.277C43.3668 330.168 43.051 330.055 42.7367 329.94L42.0462 331.817C41.7177 331.696 41.3908 331.572 41.0655 331.445L41.7941 329.582C41.4814 329.46 41.1702 329.334 40.8606 329.206L40.0945 331.053C39.7716 330.92 39.4503 330.782 39.1307 330.642L39.9341 328.811C39.6264 328.676 39.3204 328.538 39.016 328.397L38.1756 330.212C37.8587 330.065 37.5436 329.915 37.2302 329.762L38.107 327.965C37.8049 327.817 37.5045 327.667 37.2059 327.514L36.2929 329.293C35.9822 329.134 35.6734 328.971 35.3665 328.806L36.3152 327.045C36.0194 326.886 35.7254 326.724 35.4332 326.559L34.4491 328.3C34.145 328.128 33.8429 327.953 33.5426 327.775L34.5617 326.054C34.2727 325.883 33.9856 325.709 33.7005 325.533L32.647 327.233C32.3501 327.049 32.0551 326.862 31.7622 326.672L32.8497 324.993C32.568 324.811 32.2883 324.626 32.0105 324.438L30.8895 326.094C30.6002 325.898 30.313 325.7 30.0278 325.498L31.1819 323.865C30.9077 323.671 30.6355 323.475 30.3655 323.276L29.1789 324.886C28.8978 324.678 28.6189 324.468 28.3422 324.256L29.5608 322.67C29.2946 322.465 29.0305 322.258 28.7685 322.048L27.5183 323.609C27.2458 323.391 26.9756 323.17 26.7077 322.947L27.9889 321.411C27.7311 321.196 27.4755 320.978 27.2221 320.758L25.9104 322.268C25.6469 322.039 25.3858 321.808 25.127 321.573L26.4687 320.09C26.2197 319.865 25.973 319.637 25.7286 319.407L24.3575 320.863C24.1034 320.624 23.8517 320.382 23.6025 320.138L25.0025 318.71C24.7628 318.475 24.5254 318.237 24.2904 317.998L22.8621 319.398C22.6178 319.148 22.376 318.897 22.1367 318.642L23.5928 317.271C23.3626 317.027 23.1349 316.78 22.9097 316.531L21.4265 317.873C21.1924 317.614 20.9609 317.353 20.732 317.09L22.2418 315.778C22.0216 315.525 21.804 315.269 21.5889 315.011L20.0531 316.292C19.8296 316.024 19.6087 315.754 19.3905 315.482L20.9516 314.232C20.7418 313.97 20.5346 313.705 20.33 313.439L18.7442 314.658C18.5315 314.381 18.3216 314.102 18.1145 313.821L19.7244 312.635C19.5254 312.364 19.329 312.092 19.1353 311.818L17.5018 312.972C17.3004 312.687 17.1017 312.4 16.9059 312.11L18.5622 310.99C18.3743 310.712 18.189 310.432 18.0065 310.15L16.328 311.238C16.1382 310.945 15.9513 310.65 15.7673 310.353L17.4674 309.3C17.2907 309.014 17.1168 308.727 16.9457 308.438L15.2247 309.457C15.047 309.157 14.8721 308.855 14.7003 308.551L16.4414 307.567C16.2763 307.275 16.114 306.981 15.9545 306.685L14.1939 307.634C14.0285 307.327 13.8661 307.018 13.7067 306.707L15.4861 305.794C15.3329 305.495 15.1826 305.195 15.0352 304.893L13.2377 305.77C13.0848 305.456 12.935 305.141 12.7883 304.824L14.6032 303.984C14.4622 303.68 14.3242 303.374 14.1893 303.066L12.3577 303.869C12.2175 303.55 12.0805 303.228 11.9466 302.905L13.794 302.139C13.6656 301.83 13.5403 301.519 13.418 301.206L11.5554 301.934C11.4281 301.609 11.3041 301.282 11.1833 300.954L13.0603 300.263C12.9446 299.949 12.8321 299.633 12.7226 299.316L10.832 299.968C10.7182 299.638 10.6076 299.307 10.5002 298.974L12.4037 298.36C12.3008 298.041 12.201 297.721 12.1044 297.399L10.1888 297.974C10.0886 297.64 9.99164 297.305 9.89798 296.968L11.8248 296.432C11.7348 296.109 11.6479 295.784 11.5643 295.458L9.627 295.954C9.54054 295.617 9.45737 295.279 9.37754 294.939L11.3245 294.481C11.2478 294.155 11.1742 293.827 11.1039 293.498L9.14808 293.916C9.07526 293.575 9.00578 293.233 8.93968 292.89L10.9036 292.512C10.8402 292.183 10.7801 291.853 10.7232 291.521L8.75209 291.86C8.69299 291.516 8.63727 291.17 8.58497 290.824L10.5626 290.525C10.5127 290.195 10.466 289.863 10.4226 289.53L8.43941 289.789C8.39429 289.443 8.35256 289.096 8.31427 288.748L10.3023 288.529C10.2657 288.197 10.2323 287.863 10.2023 287.528L8.21027 287.707C8.17915 287.36 8.15144 287.012 8.12716 286.664L10.1223 286.525C10.099 286.19 10.079 285.854 10.0623 285.517L8.0647 285.616C8.04752 285.269 8.03372 284.922 8.02336 284.573L10.0225 284.514C10.0125 284.179 10.0058 283.843 10.0025 283.506L8.0026 283.526C8.00087 283.351 8 283.175 8 283V282.502H10V281.506H8V280.51H10V279.514H8V278.518H10V277.522H8V276.526H10V275.53H8V274.533H10V273.537H8V272.541H10V271.545H8V270.549H10V269.553H8V268.557H10V267.561H8V266.565H10V265.569H8V264.573H10V263.577H8V262.581H10V261.585H8V260.589H10V259.593H8V258.596H10V257.6H8V256.604H10V255.608H8V254.612H10V253.616H8V252.62H10V251.624H8V250.628H10V249.632H8V248.636H10V247.64H8V246.644H10V245.648H8V244.652H10V243.656H8V242.659H10V241.663H8V240.667H10V239.671H8V238.675H10V237.679H8V236.683H10V235.687H8V234.691H10V233.695H8V232.699H10V231.703H8V230.707H10V229.711H8V228.715H10V227.718H8V226.722H10V225.726H8V224.73H10V223.734H8V222.738H10V221.742H8V220.746H10V219.75H8V218.754H10V217.758H8V216.762H10V215.766H8V214.77H10V213.774H8V212.778H10V211.781H8V210.785H10V209.789H8V208.793H10V207.797H8V206.801H10V205.805H8V204.809H10V203.813H8V202.817H10V201.821H8V200.825H10V199.829H8V198.833H10V197.837H8V196.841H10V195.844H8V194.848H10V193.852H8V192.856H10V191.86H8V190.864H10V189.868H8V188.872H10V187.876H8V186.88H10V185.884H8V184.888H10V183.892H8V182.896H10V181.9H8V180.904H10V179.907H8V178.911H10V177.915H8V176.919H10V175.923H8V174.927H10V173.931H8V172.935H10V171.939H8V170.943H10V169.947H8V168.951H10V167.955H8V166.959H10V165.963H8V164.967H10V163.97H8V162.974H10V161.978H8V160.982H10V159.986H8V158.99H10V157.994H8V156.998H10V156.002H8V155.006H10V154.01H8V153.014H10V152.018H8V151.022H10V150.026H8V149.03H10V148.033H8V147.037H10V146.041H8V145.045H10V144.049H8V143.053H10V142.057H8V141.061H10V140.065H8V139.069H10V138.073H8V137.077H10V136.081H8V135.085H10V134.089H8V133.092H10V132.096H8V131.1H10V130.104H8V129.108H10V128.112H8V127.116H10V126.12H8V125.124H10V124.128H8V123.132H10V122.136H8V121.14H10V120.144H8V119.148H10V118.152H8V117.155H10V116.159H8V115.163H10V114.167H8V113.171H10V112.175H8V111.179H10V110.183H8V109.187H10V108.191H8V107.195H10V106.199H8V105.203H10V104.207H8V103.211H10V102.215H8V101.218H10V100.222H8V99.2263H10V98.2303H8V97.2342H10V96.2382H8V95.2421H10V94.246H8V93.25H10V92.2539H8V91.2578H10V90.2618H8V89.2657H10V88.2697H8V87.2736H10V86.2775H8V85.2815H10V84.2854H8V83.2893H10V82.2933H8V81.2972H10V80.3011H8V79.3051H10V78.309H8V77.313H10V76.3169H8V75.3208H10V74.3248H8V73.3287H10V72.3326H8V71.3366H10V70.3405H8V69.3445H10V68.3484H8V67.3523H10V66.3563H8V65.3602H10V64.3641H8V63.3681H10V62.372H8V61.3759H10V60.3799H8V59.3838H10V58.3878H8V57.3917H10V56.3956H8V55.3996H10V54.4035H8V53.4074H10V52.4114H8V51.4153H10V50.4193H8V49.4232H10V48.4271H8V47.4311H10V46.435H8V45.4389H10V44.4429H8V43.4468H10V42.4508H8V41.4547H10V40.4586H8V39.4626H10V38.4665H8V37.4704H10V36.4744H8V35.4783H10V34.4822H8V33.4862H10V32.4901H8V31.4941H10V30.498H8V30C8 29.8193 8.00218 29.6391 8.00652 29.4594L10.0059 29.5077C10.0139 29.1788 10.0298 28.8519 10.0534 28.5272L8.05868 28.382C8.08492 28.0215 8.11986 27.6634 8.16329 27.3077L10.1485 27.5502C10.1884 27.224 10.2361 26.9002 10.2914 26.579L8.3205 26.2393C8.38189 25.8831 8.45186 25.5298 8.53018 25.1795L10.482 25.616C10.5536 25.2956 10.633 24.978 10.7198 24.6636L8.79199 24.1312C8.88818 23.7829 8.9927 23.4381 9.10534 23.097L11.0045 23.7241C11.1074 23.4125 11.2177 23.1044 11.3353 22.7998L9.46945 22.0796C9.59946 21.7428 9.73751 21.41 9.88335 21.0815L11.7113 21.893C11.8444 21.5933 11.9845 21.2975 12.1317 21.0058L10.3459 20.1052C10.5083 19.7831 10.6784 19.4657 10.8559 19.153L12.5952 20.1404C12.757 19.8554 12.9255 19.5748 13.1007 19.2988L11.412 18.2272C11.605 17.923 11.8054 17.6238 12.0127 17.33L13.6468 18.483C13.8357 18.2154 14.0309 17.9527 14.2323 17.6949L12.6564 16.4634C12.8781 16.1797 13.1066 15.9016 13.3417 15.6294L14.8555 16.9364C15.0694 16.6886 15.2893 16.4461 15.515 16.2092L14.0667 14.8299C14.3149 14.5693 14.5693 14.3149 14.8299 14.0667L16.2092 15.515C16.4461 15.2893 16.6886 15.0694 16.9364 14.8555L15.6294 13.3417C15.9017 13.1066 16.1797 12.8781 16.4634 12.6564L17.695 14.2323C17.9527 14.0309 18.2154 13.8357 18.483 13.6468L17.33 12.0127C17.6238 11.8053 17.923 11.605 18.2272 11.412L19.2988 13.1007C19.5748 12.9255 19.8554 12.757 20.1404 12.5952L19.153 10.8559C19.4657 10.6784 19.7831 10.5083 20.1052 10.3459L21.0058 12.1317C21.2975 11.9845 21.5933 11.8444 21.893 11.7113L21.0815 9.88335C21.41 9.73751 21.7428 9.59946 22.0796 9.46945L22.7998 11.3353C23.1044 11.2177 23.4125 11.1074 23.7241 11.0045L23.097 9.10534C23.4381 8.9927 23.7829 8.88817 24.1312 8.79199L24.6636 10.7198C24.978 10.633 25.2956 10.5536 25.616 10.482L25.1795 8.53018C25.5298 8.45186 25.8831 8.38189 26.2393 8.3205L26.579 10.2914C26.9002 10.2361 27.224 10.1884 27.5502 10.1485L27.3077 8.16329C27.6634 8.11986 28.0215 8.08492 28.382 8.05868L28.5272 10.0534C28.8519 10.0298 29.1788 10.0139 29.5077 10.0059L29.4594 8.00652C29.6391 8.00218 29.8193 8 30 8H30.4985V10H31.4954V8H32.4923V10H33.4892V8H34.4861V10H35.483V8H36.4799V10H37.4769V8H38.4738V10H39.4707V8H40.4676V10H41.4645V8H42.4614V10H43.4583V8H44.4552V10H45.4522V8H46.4491V10H47.446V8H48.4429V10H49.4398V8H50.4367V10H51.4336V8H52.4306V10H53.4275V8H54.4244V10H55.4213V8H56.4182V10H57.4151V8H58.412V10H59.409V8H60.4059V10H61.4028V8H62.3997V10H63.3966V8H64.3935V10H65.3904V8H66.3874V10H67.3843V8H68.3812V10H69.3781V8H70.375V10H71.3719V8H72.3688V10H73.3657V8H74.3627V10H75.3596V8H76.3565V10H77.3534V8H78.3503V10H79.3472V8H80.3441V10H81.3411V8H82.338V10H83.3349V8H84.3318V10H85.3287V8H86.3256V10H87.3225V8H88.3195V10H89.3164V8H90.3133V10H91.3102V8H92.3071V10H93.304V8H94.3009V10H95.2979V8H96.2948V10H97.2917V8H98.2886V10H99.2855V8H100.282V10H101.279V8H102.276V10H103.273V8H104.27V10H105.267V8H106.264V10H107.261V8H108.258V10H109.255V8H110.252V10H111.248V8H112.245V10H113.242V8H114.239V10H115.236V8H116.233V10H117.23V8H118.227V10H119.224V8H120.221V10H121.218V8H122.214V10H123.211V8H124.208V10H125.205V8H126.202V10H127.199V8H128.196V10H129.193V8H130.19V10H131.187V8H132.184V10H133.18V8H134.177V10H135.174V8H136.171V10H137.168V8H138.165V10H139.162V8H140.159V10H141.156V8H142.153V10H143.15V8H144.146V10H145.143V8H146.14V10H147.137V8H148.134V10H149.131V8H150.128V10H151.125V8H152.122V10H153.119V8H154.116V10H155.112V8H156.109V10H157.106V8H158.103V10H159.1V8H160.097V10H161.094V8H162.091V10H163.088V8H164.085V10H165.082V8H166.079V10H167.075V8H168.072V10H169.069V8H170.066V10H171.063V8H172.06V10H173.057V8H174.054V10H175.051V8H176.048V10H177.045V8H178.042V10H179.038V8H180.035V10H181.032V8H182.029V10H183.026V8H184.023V10H185.02V8H186.017V10H187.014V8H188.011V10H189.008V8H190.005V10H191.001V8H191.998V10H192.995V8H193.992V10H194.989V8H195.986V10H196.983V8H197.98V10H198.977V8H199.974V10H200.971V8H201.968V10H202.964V8H203.961V10H204.958V8H205.955V10H206.952V8H207.949V10H208.946V8H209.943V10H210.94V8H211.937V10H212.934V8H213.931V10H214.928V8H215.924V10H216.921V8H217.918V10H218.915V8H219.912V10H220.909V8H221.906V10H222.903V8H223.9V10H224.897V8H225.894V10H226.891V8H227.887V10H228.884V8H229.881V10H230.878V8H231.875V10H232.872V8H233.869V10H234.866V8H235.863V10H236.86V8H237.857V10H238.854V8H239.85V10H240.847V8H241.844V10H242.841V8H243.838V10H244.835V8H245.832V10H246.829V8H247.826V10H248.823V8H249.82V10H250.817V8H251.813V10H252.81V8H253.807V10H254.804V8H255.801V10H256.798V8H257.795V10H258.792V8H259.789V10H260.786V8H261.783V10H262.78V8H263.776V10H264.773V8H265.77V10H266.767V8H267.764V10H268.761V8H269.758V10H270.755V8H271.752V10H272.749V8H273.746V10H274.743V8H275.739V10H276.736V8H277.733V10H278.73V8H279.727V10H280.724V8H281.721V10H282.718V8H283.715V10H284.712V8H285.709V10H286.706V8H287.702V10H288.699V8H289.696V10H290.693V8H291.69V10H292.687V8H293.684V10H294.681V8H295.678V10H296.675V8H297.672V10H298.669V8H299.665V10H300.662V8H301.659V10H302.656V8H303.653V10H304.65V8H305.647V10H306.644V8H307.641V10H308.638V8H309.635V10H310.632V8H311.629V10H312.625V8H313.622V10H314.619V8H315.616V10H316.613V8H317.61V10H318.607V8H319.604V10H320.601V8H321.598V10H322.595V8H323.592V10H324.588V8H325.585V10H326.582V8H327.579V10H328.576V8H329.573V10H330.57V8H331.567V10H332.564V8H333.561V10H334.558V8H335.555V10H336.551V8H337.548V10H338.545V8H339.542V10H340.539V8H341.536V10H342.533V8H343.53V10H344.527V8H345.524V10H346.521V8H347.518V10H348.514V8H349.511V10H350.508V8H351.505V10H352.502V8H353C353.175 8 353.351 8.00087 353.526 8.0026L353.506 10.0025C353.843 10.0058 354.179 10.0125 354.514 10.0225L354.573 8.02336C354.922 8.03372 355.269 8.04751 355.616 8.0647L355.517 10.0622C355.854 10.079 356.19 10.099 356.525 10.1223L356.664 8.12716C357.012 8.15144 357.36 8.17915 357.707 8.21027L357.528 10.2023C357.863 10.2323 358.197 10.2657 358.529 10.3023L358.748 8.31427C359.096 8.35256 359.443 8.39429 359.789 8.43942L359.53 10.4226C359.863 10.466 360.195 10.5127 360.525 10.5626L360.824 8.58497C361.17 8.63727 361.516 8.69299 361.86 8.7521L361.521 10.7232C361.853 10.7801 362.183 10.8402 362.512 10.9036L362.89 8.93968C363.233 9.00578 363.575 9.07526 363.916 9.14808L363.498 11.1039C363.827 11.1742 364.155 11.2478 364.482 11.3245L364.939 9.37754C365.279 9.45738 365.617 9.54054 365.954 9.627L365.458 11.5643C365.784 11.6479 366.109 11.7348 366.432 11.8248L366.968 9.89798C367.305 9.99165 367.64 10.0886 367.974 10.1888L367.399 12.1044C367.721 12.201 368.041 12.3008 368.36 12.4037L368.974 10.5002C369.307 10.6076 369.638 10.7182 369.968 10.832L369.316 12.7226C369.633 12.8321 369.949 12.9446 370.263 13.0603L370.954 11.1833C371.282 11.3041 371.609 11.4282 371.934 11.5554L371.206 13.418C371.519 13.5403 371.83 13.6656 372.139 13.794L372.905 11.9466C373.228 12.0805 373.55 12.2176 373.869 12.3577L373.066 14.1893C373.374 14.3242 373.68 14.4622 373.984 14.6032L374.824 12.7883C375.141 12.935 375.456 13.0848 375.77 13.2377L374.893 15.0352C375.195 15.1826 375.495 15.3329 375.794 15.4861L376.707 13.7067C377.018 13.8661 377.327 14.0285 377.634 14.1939L376.685 15.9545C376.981 16.114 377.275 16.2763 377.567 16.4414L378.551 14.7003C378.855 14.8721 379.157 15.047 379.457 15.2247L378.438 16.9457C378.727 17.1168 379.014 17.2907 379.3 17.4674L380.353 15.7673C380.65 15.9513 380.945 16.1382 381.238 16.328L380.15 18.0065C380.432 18.189 380.712 18.3743 380.99 18.5622L382.11 16.9059C382.4 17.1017 382.687 17.3003 382.972 17.5018L381.818 19.1353C382.092 19.329 382.364 19.5254 382.635 19.7244L383.821 18.1144C384.102 18.3216 384.381 18.5315 384.658 18.7442L383.439 20.33C383.705 20.5346 383.97 20.7418 384.232 20.9516L385.482 19.3905C385.754 19.6087 386.024 19.8296 386.292 20.0531L385.011 21.5888C385.269 21.8039 385.525 22.0216 385.778 22.2417L387.09 20.732C387.353 20.9609 387.614 21.1924 387.873 21.4265L386.531 22.9097C386.78 23.1349 387.027 23.3626 387.271 23.5928L388.642 22.1367C388.897 22.376 389.148 22.6178 389.398 22.8621L387.998 24.2904C388.237 24.5254 388.475 24.7627 388.71 25.0025L390.138 23.6025C390.382 23.8517 390.624 24.1034 390.863 24.3575L389.407 25.7286C389.637 25.973 389.865 26.2197 390.09 26.4687L391.573 25.127C391.808 25.3857 392.039 25.6469 392.268 25.9104L390.758 27.2221C390.978 27.4755 391.196 27.7311 391.411 27.9889L392.947 26.7077C393.17 26.9756 393.391 27.2458 393.609 27.5183L392.048 28.7685C392.258 29.0304 392.465 29.2946 392.67 29.5608L394.256 28.3421C394.468 28.6189 394.678 28.8978 394.886 29.1789L393.276 30.3654C393.475 30.6355 393.671 30.9077 393.865 31.1819L395.498 30.0278C395.7 30.313 395.898 30.6002 396.094 30.8895L394.438 32.0105C394.626 32.2882 394.811 32.568 394.993 32.8497L396.672 31.7622C396.862 32.0551 397.049 32.3501 397.233 32.647L395.533 33.7005C395.709 33.9856 395.883 34.2727 396.054 34.5616L397.775 33.5426C397.953 33.8428 398.128 34.145 398.3 34.4491L396.559 35.4332C396.724 35.7254 396.886 36.0194 397.045 36.3152L398.806 35.3665C398.971 35.6734 399.134 35.9822 399.293 36.2929L397.514 37.2059C397.667 37.5045 397.817 37.8049 397.965 38.107L399.762 37.2302C399.915 37.5436 400.065 37.8588 400.212 38.1757L398.397 39.016C398.538 39.3204 398.676 39.6264 398.811 39.9341L400.642 39.1307C400.782 39.4503 400.92 39.7716 401.053 40.0945L399.206 40.8606C399.334 41.1702 399.46 41.4814 399.582 41.7941L401.445 41.0656C401.572 41.3908 401.696 41.7177 401.817 42.0462L399.94 42.7367C400.055 43.051 400.168 43.3668 400.277 43.6841L402.168 43.0317C402.282 43.3616 402.392 43.693 402.5 44.0259L400.596 44.6397C400.699 44.9588 400.799 45.2793 400.896 45.6012L402.811 45.0261C402.911 45.36 403.008 45.6952 403.102 46.0319L401.175 46.568C401.265 46.8915 401.352 47.2163 401.436 47.5425L403.373 47.0457C403.459 47.3828 403.543 47.7213 403.622 48.061L401.675 48.5185C401.752 48.8451 401.826 49.1729 401.896 49.502L403.852 49.0841C403.925 49.4249 403.994 49.7669 404.06 50.1102L402.096 50.4884C402.16 50.8173 402.22 51.1474 402.277 51.4786L404.248 51.1401C404.307 51.4843 404.363 51.8297 404.415 52.1762L402.437 52.4747C402.487 52.8053 402.534 53.1369 402.577 53.4695L404.561 53.2109C404.606 53.5568 404.647 53.9038 404.686 54.2519L402.698 54.4706C402.734 54.8034 402.768 55.1372 402.798 55.472L404.79 55.2932C404.821 55.6399 404.849 55.9875 404.873 56.3361L402.878 56.4751C402.901 56.8102 402.921 57.1462 402.938 57.4831L404.935 57.384C404.952 57.7307 404.966 58.0783 404.977 58.4267L402.978 58.4861C402.987 58.8213 402.994 59.1573 402.997 59.4942L404.997 59.4743C404.999 59.6494 405 59.8246 405 60V60.4981H403V61.4943H405V62.4905H403V63.4867H405V64.483H403V65.4792H405V66.4754H403V67.4716H405V68.4678H403V69.464H405V70.4602H403V71.4564H405V72.4527H403V73.4489H405V74.4451H403V75.4413H405V76.4375H403V77.4337H405V78.4299H403V79.4261H405V80.4223H403V81.4186H405V82.4148H403V83.411H405V84.4072H403V85.4034H405V86.3996H403V87.3958H405V88.392H403V89.3883H405V90.3845H403V91.3807H405V92.3769H403V93.3731H405V94.3693H403V95.3655H405V96.3617H403V97.3579H405V98.3542H403V99.3504H405V100.347H403V101.343H405V102.339H403V103.335H405V104.331H403V105.328H405V106.324H403V107.32H405V108.316H403V109.312H405V110.309H403V111.305H405V112.301H403V113.297H405V114.294H403V115.29H405V116.286H403V117.282H405V118.278H403V119.275H405V120.271H403V121.267H405V122.263H403V123.259H405V124.256H403V125.252H405V126.248H403V127.244H405V128.241H403V129.237H405V130.233H403V131.229H405V132.225H403V133.222H405V134.218H403V135.214H405V136.21H403V137.206H405V138.203H403V139.199H405V140.195H403V141.191H405V142.188H403V143.184H405V144.18H403V145.176H405V146.172H403V147.169H405V148.165H403V149.161H405V150.157H403V151.154H405V152.15H403V153.146H405V154.142H403V155.138H405V156.135H403V157.131H405V158.127H403V159.123H405V160.119H403V161.116H405V162.112H403V163.108H405V164.104H403V165.101H405V166.097H403V167.093H405V168.089H403V169.085H405V170.082H403V171.078H405V172.074H403V173.07H405V174.066H403V175.063H405V176.059H403V177.055H405V178.051H403V179.048H405V180.044H403V181.04H405V182.036H403V183.032H405V184.029H403V185.025H405V186.021H403V187.017H405V188.013H403V189.01H405V190.006H403V191.002H405V191.998H403V192.995H405V193.991H403V194.987H405V195.983H403V196.979H405V197.976H403V198.972H405V199.968H403V200.964H405V201.961H403V202.957H405V203.953H403V204.949H405V205.945H403V206.942H405V207.938H403V208.934H405V209.93H403V210.926H405V211.923H403V212.919H405V213.915H403V214.911H405V215.908H403V216.904H405V217.9H403V218.896H405V219.892H403V220.889H405V221.885H403V222.881H405V223.877H403V224.873H405V225.87H403V226.866H405V227.862H403V228.858H405V229.855H403V230.851H405V231.847H403V232.843H405V233.839H403V234.836H405V235.832H403V236.828H405V237.824H403V238.821H405V239.817H403V240.813H405V241.809H403V242.805H405V243.802H403V244.798H405V245.794H403V246.79H405V247.786H403V248.783H405V249.779H403V250.775H405V251.771H403V252.768H405V253.764H403V254.76H405V255.756H403V256.752H405V257.749H403V258.745H405V259.741H403V260.737H405V261.733H403V262.73H405V263.726H403V264.722H405V265.718H403V266.715H405V267.711H403V268.707H405V269.703H403V270.699H405V271.696H403V272.692H405V273.688H403V274.684H405V275.68H403V276.677H405V277.673H403V278.669H405V279.665H403V280.662H405V281.658H403V282.654H405V283.65H403V284.646H405V285.643H403V286.639H405V287.635H403V288.631H405V289.628H403V290.624H405V291.62H403V292.616H405V293.612H403V294.609H405V295.605H403V296.601H405V297.597H403V298.593H405V299.59H403V300.586H405V301.582H403V302.578H405V303.575H403V304.571H405V305.567H403V306.563H405V307.559H403V308.556H405V309.552H403V310.548H405V311.544H403V312.54H405V313.537H403V314.533H405V315.529H403V316.525H405V317.522H403V318.518H405V319.514H403V320.51H405V321.506H403V322.503H405V323C405 323.197 404.995 323.393 404.986 323.587L402.988 323.491C402.972 323.821 402.94 324.147 402.893 324.468L404.872 324.759C404.814 325.151 404.738 325.536 404.643 325.915L402.703 325.431C402.623 325.75 402.528 326.063 402.418 326.37L404.301 327.044C404.168 327.416 404.017 327.779 403.849 328.133L402.042 327.277C401.901 327.573 401.747 327.862 401.579 328.142L403.293 329.172C403.091 329.509 402.872 329.835 402.638 330.15L401.033 328.957C400.837 329.22 400.629 329.473 400.41 329.716L401.891 331.059C401.628 331.35 401.35 331.628 401.059 331.891L399.716 330.41C399.473 330.629 399.22 330.837 398.957 331.033L400.15 332.638C399.835 332.872 399.509 333.091 399.171 333.293L398.142 331.579C397.862 331.747 397.573 331.901 397.277 332.042L398.133 333.849C397.779 334.017 397.416 334.168 397.044 334.301L396.37 332.418C396.063 332.528 395.75 332.623 395.431 332.703L395.915 334.643C395.536 334.738 395.151 334.814 394.759 334.872L394.468 332.893C394.147 332.94 393.821 332.972 393.491 332.988L393.587 334.986C393.393 334.995 393.197 335 393 335H392.501V333H391.504V335H390.507V333H389.51V335H388.513V333H387.516V335H386.519V333H385.522V335H384.525V333H383.528V335H382.531V333H381.534V335H380.537V333H379.54V335H378.543V333H377.546V335H376.549V333H375.552V335H374.555V333H373.558V335H372.561V333H371.564V335H370.567V333H369.57V335H368.573V333H367.576V335H366.579V333H365.582V335H364.585V333H363.588V335H362.591V333H361.594V335H360.597V333H359.6V335H358.603V333H357.606V335H356.609V333H355.612V335H354.615V333H353.618V335H352.621V333H351.624V335H350.627V333H349.63V335H348.633V333H347.636V335H346.639V333H345.642V335H344.645V333H343.648V335H342.651V333H341.654V335H340.657V333H339.66V335H338.663V333H337.666V335H336.669V333H335.672V335H334.675V333H333.678V335H332.681V333H331.684V335H330.687V333H329.69V335H328.693V333H327.696V335H326.699V333H325.702V335H324.705V333H323.708V335H322.711V333H321.714V335H320.717V333H319.72V335H318.723V333H317.726V335H316.729V333H315.732V335H314.735V333H313.738V335H312.741V333H311.744V335H310.747V333H309.75V335H308.753V333H307.756V335H306.759V333H305.762V335H304.765V333H303.768V335H302.771V333H301.774V335H300.777V333H299.78V335H298.783V333H297.786V335H296.789V333H295.792V335H294.795V333H293.798V335H292.801V333H291.804V335H290.807V333H289.81V335H288.813V333H287.816V335H286.819V333H285.822V335H284.825V333H283.828V335H282.831V333H281.834V335H280.837V333H279.84V335H278.843V333H277.846V335H276.849V333H275.852V335H274.855V333H273.858V335H272.861V333H271.864V335H270.867V333H269.87V335H268.873V333H267.876V335H266.879V333H265.882V335H264.885V333H263.888V335H262.891V333H261.894V335H260.896V333H259.899V335H258.902V333H257.905V335H256.908V333H255.911V335H254.914V333H253.917V335H252.92V333H251.923V335H250.926V333H249.929V335H248.932V333H247.935V335H246.938V333H245.941V335H244.944V333H243.947V335H242.95V333H241.953V335H240.956V333H239.959V335H238.962V333H237.965V335H236.968V333H235.971V335H234.974V333H233.977V335H232.98V333H231.983V335H230.986V333H229.989V335H228.992V333H227.995V335H226.998V333H226.001V335H225.004V333H224.007V335H223.01V333H222.013V335H221.016V333H220.019V335H219.022V333H218.025V335H217.028V333H216.031V335H215.034V333H214.037V335H213.04V333H212.043V335H211.046V333H210.049V335H209.052V333H208.055V335H207.058V333H206.061V335H205.064V333H204.067V335H203.07V333H202.073V335H201.076V333H200.079V335H199.082V333H198.085V335H197.088V333H196.091V335H195.094V333H194.097V335H193.1V333H192.103V335H191.106V333H190.109V335H189.112V333H188.115V335H187.118V333H186.121V335H185.124V333H184.127V335H183.13V333H182.133V335H181.136V333H180.139V335H179.142V333H178.145V335H177.148V333H176.151V335H175.154V333H174.157V335H173.16V333H172.163V335H171.166V333H170.169V335H169.172V333H168.175V335H167.178V333H166.181V335H165.184V333H164.187V335H163.19V333H162.193V335H161.196V333H160.199V335H159.202V333H158.205V335H157.208V333H156.211V335H155.214V333H154.217V335H153.22V333H152.222V335H151.225V333H150.228V335H149.231V333H148.234V335H147.237V333H146.24V335H145.243V333H144.246V335H143.249V333H142.252V335H141.255V333H140.258V335H139.261V333H138.264V335H137.267V333H136.27V335H135.273V333H134.276V335H133.279V333H132.282V335H131.285V333H130.288V335H129.291V333H128.294V335H127.297V333H126.3V335H125.303V333H124.306V335H123.309V333H122.312V335H121.315V333H120.318V335H119.321V333H118.324V335H117.327V333H116.33V335H115.333V333H114.336V335H113.339V333H112.342V335H111.345V333H110.348V335H109.351V333H108.354V335H107.357V333H106.36V335H105.363V333H104.366V335H103.369V333H102.372V335H101.375V333H100.378V335H99.381V333H98.384V335H97.387V333H96.39V335H95.393V333H94.396V335H93.399V333H92.402V335H91.405V333H90.4079V335H89.4109V333H88.4139V335H87.4169V333H86.4199V335H85.4229V333H84.4259V335H83.4289V333H82.4319V335H81.4348V333H80.4378V335H79.4408V333H78.4438V335H77.4468V333H76.4498V335H75.4528V333H74.4558V335H73.4588V333H72.4618V335H71.4647V333H70.4677V335H69.4707V333H68.4737V335H67.4767V333H66.4797V335H65.4827V333H64.4857V335H63.4887V333H62.4917V335H61.4947V333H60.4977V335H60C59.8246 335 59.6494 334.999 59.4744 334.997L59.4942 332.997Z" stroke="url(#paint1_linear_67_286)" stroke-width="4" stroke-dasharray="1 1"/>
</g>
<defs>
<filter id="filter0_bd_67_286" x="-34" y="-34" width="481" height="411" filterUnits="userSpaceOnUse" color-interpolation-filters="sRGB">
<feFlood flood-opacity="0" result="BackgroundImageFix"/>
<feGaussianBlur in="BackgroundImage" stdDeviation="20"/>
<feComposite in2="SourceAlpha" operator="in" result="effect1_backgroundBlur_67_286"/>
<feColorMatrix in="SourceAlpha" type="matrix" values="0 0 0 0 0 0 0 0 0 0 0 0 0 0 0 0 0 0 127 0" result="hardAlpha"/>
<feOffset/>
<feGaussianBlur stdDeviation="3"/>
<feComposite in2="hardAlpha" operator="out"/>
<feColorMatrix type="matrix" values="0 0 0 0 1 0 0 0 0 1 0 0 0 0 1 0 0 0 0.25 0"/>
<feBlend mode="normal" in2="effect1_backgroundBlur_67_286" result="effect2_dropShadow_67_286"/>
<feBlend mode="normal" in="SourceGraphic" in2="effect2_dropShadow_67_286" result="shape"/>
</filter>
<filter id="filter1_f_67_286" x="-210" y="-222" width="831" height="831" filterUnits="userSpaceOnUse" color-interpolation-filters="sRGB">
<feFlood flood-opacity="0" result="BackgroundImageFix"/>
<feBlend mode="normal" in="SourceGraphic" in2="BackgroundImageFix" result="shape"/>
<feGaussianBlur stdDeviation="100" result="effect1_foregroundBlur_67_286"/>
</filter>
<linearGradient id="paint0_linear_67_286" x1="-19.3951" y1="409" x2="421" y2="409" gradientUnits="userSpaceOnUse">
<stop stop-color="#67ECE4"/>
<stop offset="1" stop-color="#686BD5"/>
</linearGradient>
<linearGradient id="paint1_linear_67_286" x1="403" y1="10" x2="10" y2="333" gradientUnits="userSpaceOnUse">
<stop stop-color="#F12E1C"/>
<stop offset="1" stop-color="#7AD2C8"/>
</linearGradient>
<clipPath id="clip0_67_286">
<path d="M10 30C10 18.9543 18.9543 10 30 10H353C380.614 10 403 32.3858 403 60V323C403 328.523 398.523 333 393 333H60C32.3858 333 10 310.614 10 283V30Z" fill="white"/>
</clipPath>
</defs>
</svg>
